<svg xmlns="http://www.w3.org/2000/svg" id="navSelectedDesignIcon" width="16" height="16" viewBox="0 0 16 16" x="32" y="128">
    <path fill="#eea600" d="M14.415 11.585l-2.915-2.92v-2.165c0.001-0.133-0.051-0.261-0.145-0.355l-5-5c-0.094-0.095-0.222-0.148-0.355-0.148s-0.261 0.053-0.355 0.148l-4.5 4.5c-0.095 0.094-0.148 0.222-0.148 0.355s0.053 0.261 0.148 0.355l5 5c0.094 0.094 0.222 0.146 0.355 0.145h2.17l2.915 2.92c0.781 0.781 2.049 0.781 2.83 0s0.781-2.049 0-2.83v-0.005zM3 5.205l1.145 1.15 0.71-0.71-1.15-1.145 0.795-0.795 2.145 2.15 0.71-0.71-2.15-2.145 0.795-0.795 3.295 3.295-3.795 3.795-3.295-3.295 0.795-0.795zM13.705 13.705c-0.39 0.388-1.020 0.388-1.41 0l-3.065-3.060c-0.107-0.073-0.228-0.123-0.355-0.145h-2.17l-0.5-0.5 3.795-3.795 0.5 0.5v2.17c0.001 0.131 0.053 0.257 0.145 0.35l3.060 3.070c0.388 0.39 0.388 1.020 0 1.41z"/>
</svg>