<svg xmlns="http://www.w3.org/2000/svg" id="navSelectedAccessIcon" width="16" height="16" viewBox="0 0 16 16" x="0" y="128">
    <path fill="white" d="M10.5 1c-2.485 0-4.5 2.015-4.5 4.5 0 0.442 0.065 0.882 0.195 1.305l-5.195 5.195v3h3l5.195-5.195c1.303 0.4 2.717 0.188 3.845-0.577s1.849-1.999 1.96-3.358c0.101-1.067-0.193-2.134-0.825-3-0.851-1.181-2.22-1.878-3.675-1.87zM10.5 9c-0.339-0.001-0.676-0.052-1-0.15l-0.575-0.175-2.015 2.015-0.705-0.69-0.705 0.705 0.69 0.69-0.795 0.795-0.69-0.69-0.705 0.705 0.69 0.69-1.105 1.105h-1.585v-1.585l5.325-5.34-0.145-0.475c-0.519-1.632 0.194-3.403 1.7-4.22 1.069-0.559 2.35-0.528 3.391 0.082s1.694 1.712 1.729 2.918c0.035 0.708-0.156 1.408-0.545 2-0.643 1.010-1.758 1.621-2.955 1.62zM11 6c0.552 0 1-0.448 1-1s-0.448-1-1-1c-0.552 0-1 0.448-1 1s0.448 1 1 1z"/>
</svg>
