<svg xmlns="http://www.w3.org/2000/svg" id="navSelectedSettingsIcon" width="16" height="16" viewBox="0 0 16 16" x="96" y="128">
    <path fill="#eea600" d="M13.5 8.38v-0.765l0.96-0.84c0.365-0.322 0.446-0.86 0.19-1.275l-1.18-2c-0.178-0.309-0.508-0.5-0.865-0.5-0.109-0.001-0.217 0.016-0.32 0.050l-1.215 0.41c-0.21-0.139-0.429-0.265-0.655-0.375l-0.255-1.26c-0.094-0.475-0.516-0.814-1-0.805h-2.34c-0.484-0.009-0.906 0.33-1 0.805l-0.255 1.26c-0.228 0.11-0.449 0.236-0.66 0.375l-1.19-0.43c-0.104-0.027-0.212-0.037-0.32-0.030-0.357 0-0.687 0.191-0.865 0.5l-1.18 2c-0.241 0.413-0.155 0.94 0.205 1.255l0.945 0.865v0.765l-0.945 0.84c-0.37 0.318-0.457 0.857-0.205 1.275l1.18 2c0.178 0.309 0.508 0.5 0.865 0.5 0.109 0.001 0.217-0.016 0.32-0.050l1.215-0.41c0.21 0.139 0.429 0.265 0.655 0.375l0.255 1.26c0.094 0.475 0.516 0.814 1 0.805h2.36c0.484 0.009 0.906-0.33 1-0.805l0.255-1.26c0.228-0.11 0.449-0.236 0.66-0.375l1.21 0.41c0.103 0.034 0.211 0.051 0.32 0.050 0.357-0 0.687-0.191 0.865-0.5l1.14-2c0.241-0.414 0.155-0.94-0.205-1.255l-0.945-0.865zM12.605 12l-1.715-0.58c-0.401 0.34-0.86 0.606-1.355 0.785l-0.355 1.795h-2.36l-0.355-1.775c-0.491-0.184-0.947-0.45-1.35-0.785l-1.72 0.56-1.18-2 1.36-1.2c-0.092-0.518-0.092-1.047 0-1.565l-1.36-1.235 1.18-2 1.715 0.58c0.401-0.34 0.86-0.606 1.355-0.785l0.355-1.795h2.36l0.355 1.775c0.491 0.184 0.947 0.45 1.35 0.785l1.72-0.56 1.18 2-1.36 1.2c0.092 0.518 0.092 1.047 0 1.565l1.36 1.235-1.18 2zM8 11c-1.657 0-3-1.343-3-3s1.343-3 3-3c1.657 0 3 1.343 3 3 0.008 0.798-0.305 1.566-0.87 2.13s-1.332 0.878-2.13 0.87zM8 6c-0.534-0.012-1.050 0.194-1.428 0.572s-0.585 0.894-0.572 1.428c-0.012 0.534 0.194 1.050 0.572 1.428s0.894 0.585 1.428 0.572c0.534 0.012 1.050-0.194 1.428-0.572s0.585-0.894 0.572-1.428c0.012-0.534-0.194-1.050-0.572-1.428s-0.894-0.585-1.428-0.572z"/>
</svg>