<svg xmlns="http://www.w3.org/2000/svg" id="navSelectedStyleIcon" width="16" height="16" viewBox="0 0 16 16" x="128" y="128">
    <path fill="white" d="M5 7c0.552 0 1-0.448 1-1s-0.448-1-1-1c-0.552 0-1 0.448-1 1s0.448 1 1 1zM8 5.5c0.552 0 1-0.448 1-1s-0.448-1-1-1c-0.552 0-1 0.448-1 1s0.448 1 1 1zM11 7c0.552 0 1-0.448 1-1s-0.448-1-1-1c-0.552 0-1 0.448-1 1s0.448 1 1 1zM11.5 10c0.552 0 1-0.448 1-1s-0.448-1-1-1c-0.552 0-1 0.448-1 1s0.448 1 1 1zM9.5 12.5c0.552 0 1-0.448 1-1s-0.448-1-1-1c-0.552 0-1 0.448-1 1s0.448 1 1 1zM8.27 1c-1.903-0.073-3.753 0.631-5.125 1.952s-2.146 3.143-2.145 5.048c0 0.751 0.35 1.46 0.947 1.916s1.373 0.607 2.098 0.409l0.56-0.155c0.452-0.123 0.935-0.029 1.307 0.256s0.589 0.726 0.588 1.194v1.88c0 0.828 0.672 1.5 1.5 1.5 1.904 0.001 3.727-0.773 5.048-2.145s2.026-3.222 1.952-5.125c-0.15-3.653-3.077-6.58-6.73-6.73zM12.325 12.155c-1.128 1.181-2.692 1.848-4.325 1.845-0.276 0-0.5-0.224-0.5-0.5v-1.88c0-1.381-1.119-2.5-2.5-2.5-0.225 0-0.448 0.031-0.665 0.090l-0.56 0.155c-0.424 0.114-0.877 0.023-1.225-0.244s-0.551-0.682-0.55-1.121c-0.001-1.633 0.663-3.196 1.84-4.328s2.764-1.736 4.395-1.672c3.114 0.162 5.603 2.651 5.765 5.765 0.070 1.633-0.536 3.223-1.675 4.395v-0.005z"/>
</svg>