<svg xmlns="http://www.w3.org/2000/svg" id="navSelectedWorkflowIcon" width="16" height="16" viewBox="0 0 16 16" x="192" y="128">
    <path fill="white" d="M13.5 11.070v-2.57c0-0.552-0.448-1-1-1h-4v-2.57c0.975-0.252 1.611-1.189 1.484-2.188s-0.977-1.748-1.984-1.748c-1.007 0-1.857 0.749-1.984 1.748s0.509 1.937 1.484 2.188v2.57h-4c-0.552 0-1 0.448-1 1v2.57c-0.975 0.252-1.611 1.189-1.484 2.188s0.977 1.748 1.984 1.748c1.007 0 1.857-0.749 1.984-1.748s-0.509-1.937-1.484-2.188v-2.57h9v2.57c-0.975 0.252-1.611 1.189-1.484 2.188s0.977 1.748 1.984 1.748c1.007 0 1.857-0.749 1.984-1.748s-0.509-1.937-1.484-2.188zM4 13c0 0.552-0.448 1-1 1s-1-0.448-1-1c0-0.552 0.448-1 1-1s1 0.448 1 1zM7 3c0-0.552 0.448-1 1-1s1 0.448 1 1c0 0.552-0.448 1-1 1s-1-0.448-1-1zM13 14c-0.552 0-1-0.448-1-1s0.448-1 1-1c0.552 0 1 0.448 1 1s-0.448 1-1 1z"/>
</svg>